# xmcd CD database file
#
# Track frame offsets:
#	150
#	17835
#	40070
#	58950
#	76150
#	97962
#	120930
#	139943
#	159116
#	173940
#	191609
#	202407
#	222921
#
# Disc length: 3219 seconds
#
# Revision: 0
# Processed by: cddbd v1.5.1PL0 Copyright (c) Steve Scherf et al.
# Submitted via: CDex 1.51
#
DISCID=b00c910d
DTITLE=スネオヘアー - SUN! NEO! AIR!
DYEAR=2005
DGENRE=JPop
TTITLE0=真夜中のシャッフル
TTITLE1=フィルター
TTITLE2=知るわけないだろう
TTITLE3=こうしてはいられない
TTITLE4=ナロウカーヴ
TTITLE5=打ち上げ花火
TTITLE6=アイモカワラズ
TTITLE7=スネオサマー
TTITLE8=さがしだす場所
TTITLE9=おかしいな
TTITLE10=てっぺん
TTITLE11=やわらかアタマ
TTITLE12=アイモカワラズ（ボーナスバージョン）
EXTD=YEAR: 2005
EXTT0=
EXTT1=
EXTT2=
EXTT3=
EXTT4=
EXTT5=
EXTT6=
EXTT7=
EXTT8=
EXTT9=
EXTT10=
EXTT11=
EXTT12=
PLAYORDER=
